<svg width="24" height="24" viewBox="0 0 24 24" fill="none" xmlns="http://www.w3.org/2000/svg">
<path d="M14.403 8.69C13.884 6.89927 12.6814 5.38456 11.055 4.473L10.186 3.977L10.682 3.109L8.946 2.116L8.45 2.985L4.977 1L3.985 2.736L7.458 4.721L6.961 5.589L5.969 7.326L2 14.272L3.736 15.264L7.706 8.318L8.698 6.582L9.194 5.713L10.062 6.209L14.403 8.69Z" fill="#F8D67B"/>
<path d="M10 10V13H22V10H10ZM21 12H17V11H21V12ZM10 15V18H22V15H10ZM21 17H17V16H21V17ZM10 20V23H22V20H10ZM21 22H17V21H21V22Z" fill="#F8D67B"/>
</svg>
