<svg width="21" height="21" viewBox="0 0 21 21" fill="none" xmlns="http://www.w3.org/2000/svg">
<path d="M5.25 9.1875H9.1875V21H5.25V9.1875ZM6.5625 19.6875H7.875V10.5H6.5625V19.6875ZM10.5 11.8125H14.4375V21H10.5V11.8125ZM11.8125 19.6875H13.125V13.125H11.8125V19.6875ZM0 14.4375H3.9375V21H0V14.4375ZM1.3125 19.6875H2.625V15.75H1.3125V19.6875ZM15.75 6.5625H19.6875V21H15.75V6.5625ZM17.0625 19.6875H18.375V7.875H17.0625V19.6875ZM14.2427 6.36768C14.3726 6.64795 14.4375 6.93164 14.4375 7.21875C14.4375 7.49219 14.3862 7.74854 14.2837 7.98779C14.1812 8.22705 14.041 8.43555 13.8633 8.61328C13.6855 8.79102 13.4771 8.93115 13.2378 9.03369C12.9985 9.13623 12.7422 9.1875 12.4688 9.1875C12.1953 9.1875 11.939 9.13623 11.6997 9.03369C11.4604 8.93115 11.252 8.79102 11.0742 8.61328C10.8965 8.43555 10.7563 8.22705 10.6538 7.98779C10.5513 7.74854 10.5 7.49219 10.5 7.21875V7.0957C10.5 7.05469 10.5034 7.01367 10.5103 6.97266L8.58252 6.00879C8.40479 6.18652 8.19629 6.32324 7.95703 6.41895C7.71777 6.51465 7.47168 6.5625 7.21875 6.5625C6.93164 6.5625 6.64795 6.49756 6.36768 6.36768L3.74268 8.99268C3.87256 9.27295 3.9375 9.55664 3.9375 9.84375C3.9375 10.1172 3.88623 10.3735 3.78369 10.6128C3.68115 10.8521 3.54102 11.0605 3.36328 11.2383C3.18555 11.416 2.97705 11.5562 2.73779 11.6587C2.49854 11.7612 2.24219 11.8125 1.96875 11.8125C1.69531 11.8125 1.43896 11.7612 1.19971 11.6587C0.960449 11.5562 0.751953 11.416 0.574219 11.2383C0.396484 11.0605 0.256348 10.8521 0.153809 10.6128C0.0512695 10.3735 0 10.1172 0 9.84375C0 9.57031 0.0512695 9.31396 0.153809 9.07471C0.256348 8.83545 0.396484 8.62695 0.574219 8.44922C0.751953 8.27148 0.960449 8.13135 1.19971 8.02881C1.43896 7.92627 1.69531 7.875 1.96875 7.875C2.25586 7.875 2.53955 7.93994 2.81982 8.06982L5.44482 5.44482C5.31494 5.16455 5.25 4.88086 5.25 4.59375C5.25 4.32031 5.30127 4.06396 5.40381 3.82471C5.50635 3.58545 5.64648 3.37695 5.82422 3.19922C6.00195 3.02148 6.21045 2.88135 6.44971 2.77881C6.68896 2.67627 6.94531 2.625 7.21875 2.625C7.49219 2.625 7.74854 2.67627 7.98779 2.77881C8.22705 2.88135 8.43555 3.02148 8.61328 3.19922C8.79102 3.37695 8.93115 3.58545 9.03369 3.82471C9.13623 4.06396 9.1875 4.32031 9.1875 4.59375V4.7168C9.1875 4.75781 9.18408 4.79883 9.17725 4.83984L11.105 5.80371C11.2827 5.62598 11.4912 5.48926 11.7305 5.39355C11.9697 5.29785 12.2158 5.25 12.4688 5.25C12.7559 5.25 13.0396 5.31494 13.3198 5.44482L15.9448 2.81982C15.8149 2.53955 15.75 2.25586 15.75 1.96875C15.75 1.69531 15.8013 1.43896 15.9038 1.19971C16.0063 0.960449 16.1465 0.751953 16.3242 0.574219C16.502 0.396484 16.7104 0.256348 16.9497 0.153809C17.189 0.0512695 17.4453 0 17.7188 0C17.9922 0 18.2485 0.0512695 18.4878 0.153809C18.7271 0.256348 18.9355 0.396484 19.1133 0.574219C19.291 0.751953 19.4312 0.960449 19.5337 1.19971C19.6362 1.43896 19.6875 1.69531 19.6875 1.96875C19.6875 2.24219 19.6362 2.49854 19.5337 2.73779C19.4312 2.97705 19.291 3.18555 19.1133 3.36328C18.9355 3.54102 18.7271 3.68115 18.4878 3.78369C18.2485 3.88623 17.9922 3.9375 17.7188 3.9375C17.4316 3.9375 17.1479 3.87256 16.8677 3.74268L14.2427 6.36768ZM1.96875 10.5C2.14648 10.5 2.30029 10.4351 2.43018 10.3052C2.56006 10.1753 2.625 10.0215 2.625 9.84375C2.625 9.66602 2.56006 9.51221 2.43018 9.38232C2.30029 9.25244 2.14648 9.1875 1.96875 9.1875C1.79102 9.1875 1.63721 9.25244 1.50732 9.38232C1.37744 9.51221 1.3125 9.66602 1.3125 9.84375C1.3125 10.0215 1.37744 10.1753 1.50732 10.3052C1.63721 10.4351 1.79102 10.5 1.96875 10.5ZM17.7188 1.3125C17.541 1.3125 17.3872 1.37744 17.2573 1.50732C17.1274 1.63721 17.0625 1.79102 17.0625 1.96875C17.0625 2.14648 17.1274 2.30029 17.2573 2.43018C17.3872 2.56006 17.541 2.625 17.7188 2.625C17.8965 2.625 18.0503 2.56006 18.1802 2.43018C18.3101 2.30029 18.375 2.14648 18.375 1.96875C18.375 1.79102 18.3101 1.63721 18.1802 1.50732C18.0503 1.37744 17.8965 1.3125 17.7188 1.3125ZM7.21875 5.25C7.39648 5.25 7.55029 5.18506 7.68018 5.05518C7.81006 4.92529 7.875 4.77148 7.875 4.59375C7.875 4.41602 7.81006 4.26221 7.68018 4.13232C7.55029 4.00244 7.39648 3.9375 7.21875 3.9375C7.04102 3.9375 6.88721 4.00244 6.75732 4.13232C6.62744 4.26221 6.5625 4.41602 6.5625 4.59375C6.5625 4.77148 6.62744 4.92529 6.75732 5.05518C6.88721 5.18506 7.04102 5.25 7.21875 5.25ZM12.4688 7.875C12.6465 7.875 12.8003 7.81006 12.9302 7.68018C13.0601 7.55029 13.125 7.39648 13.125 7.21875C13.125 7.04102 13.0601 6.88721 12.9302 6.75732C12.8003 6.62744 12.6465 6.5625 12.4688 6.5625C12.291 6.5625 12.1372 6.62744 12.0073 6.75732C11.8774 6.88721 11.8125 7.04102 11.8125 7.21875C11.8125 7.39648 11.8774 7.55029 12.0073 7.68018C12.1372 7.81006 12.291 7.875 12.4688 7.875Z" fill="#F8D67B"/>
</svg>
