<svg width="24" height="24" viewBox="0 0 24 24" fill="none" xmlns="http://www.w3.org/2000/svg">
<path d="M4.22203 21.995V18.445C4.22203 17.174 3.88903 16.513 3.23503 15.408C2.43776 14.0581 2.01171 12.5214 2.00012 10.9537C1.98853 9.38603 2.3918 7.84317 3.16902 6.48167C3.94624 5.12016 5.06976 3.98845 6.42558 3.20136C7.78141 2.41427 9.3213 1.9998 10.889 2C13.2461 2.00027 15.5066 2.93659 17.1735 4.60311C18.8404 6.26963 19.7772 8.52992 19.778 10.887C19.778 11.467 19.778 11.757 19.802 11.919C19.86 12.307 20.042 12.641 20.219 12.987L22 16.441L20.6 17.141C20.195 17.343 19.992 17.444 19.851 17.631C19.71 17.818 19.67 18.03 19.591 18.451L19.583 18.493C19.4 19.461 19.199 20.529 18.633 21.203C18.433 21.44 18.185 21.633 17.906 21.77C17.445 21.995 16.878 21.995 15.744 21.995C15.219 21.995 14.693 22.007 14.168 21.995C12.925 21.964 12 20.918 12 19.705" stroke="black" stroke-width="1.5" stroke-linecap="round" stroke-linejoin="round"/>
<path d="M14.388 10.5321C13.962 10.5321 13.573 10.3701 13.278 10.1051M14.388 10.5321C14.388 11.6781 13.724 12.7661 12.446 12.7661C11.168 12.7661 10.504 13.8541 10.504 15.0001M14.388 10.5321C16.538 10.5321 16.538 7.18111 14.388 7.18111C14.192 7.18178 14.0064 7.21344 13.831 7.27611C13.936 4.77811 10.335 4.10011 9.51903 6.44011M9.51903 6.44011C10.114 6.84111 10.504 7.52311 10.504 8.29711M9.51903 6.44011C7.66703 5.19011 5.19903 7.43311 6.37303 9.43311C4.40303 9.72811 4.61303 12.7661 6.62003 12.7661C6.88763 12.766 7.15124 12.7012 7.38839 12.5772C7.62555 12.4533 7.82921 12.2738 7.98203 12.0541" stroke="black" stroke-width="1.5" stroke-linecap="round" stroke-linejoin="round"/>
</svg>
