<svg width="29" height="29" viewBox="0 0 29 29" fill="none" xmlns="http://www.w3.org/2000/svg">
<path d="M3.625 5.4375V7.25H23.5625V21.75H10.875V23.5625H27.1875V21.75H25.375V5.4375H3.625ZM7.25181 8.15625C6.29126 8.15959 5.37098 8.54253 4.6916 9.22157C4.01221 9.90061 3.62882 10.8207 3.625 11.7812C3.625 13.7741 5.25987 15.4062 7.25181 15.4062C8.21188 15.4024 9.13151 15.0192 9.81021 14.3402C10.4889 13.6611 10.8717 12.7413 10.875 11.7812C10.875 9.79022 9.24194 8.15625 7.25181 8.15625ZM12.6875 9.0625V10.875H17.2188V9.0625H12.6875ZM19.0312 9.0625V10.875H21.75V9.0625H19.0312ZM7.25181 9.96875C8.26137 9.96875 9.0625 10.769 9.0625 11.7812C9.0625 12.7963 8.26228 13.5938 7.25181 13.5938C6.23681 13.5938 5.4375 12.7963 5.4375 11.7812C5.4375 10.769 6.23772 9.96875 7.25181 9.96875ZM12.6875 12.6875V14.5H21.75V12.6875H12.6875ZM3.625 16.3125V23.5625H5.4375V18.125H8.15625V23.5625H9.96875V18.7213L11.8393 19.7109C12.3694 19.9919 13.0065 19.991 13.5357 19.7109V19.7128L16.7348 18.0208L15.8893 16.4167L12.6893 18.1087L9.88356 16.6279C9.49205 16.4208 9.05589 16.3126 8.613 16.3125H3.625Z" fill="black"/>
</svg>
